<?xml version="1.0" encoding="UTF-8" standalone="no"?>
<svg
   class="cloudCoverSvg-DS-ps0R9q"
   width="130px"
   height="130px"
   preserveAspectRatio="xMidYMid"
   viewBox="0 0 160 160"
   version="1.1"
   id="svg33"
   sodipodi:docname="cloud.svg"
   inkscape:version="1.4 (e7c3feb100, 2024-10-09)"
   xmlns:inkscape="http://www.inkscape.org/namespaces/inkscape"
   xmlns:sodipodi="http://sodipodi.sourceforge.net/DTD/sodipodi-0.dtd"
   xmlns="http://www.w3.org/2000/svg"
   xmlns:svg="http://www.w3.org/2000/svg">
  <sodipodi:namedview
     id="namedview33"
     pagecolor="#505050"
     bordercolor="#eeeeee"
     borderopacity="1"
     inkscape:showpageshadow="0"
     inkscape:pageopacity="0"
     inkscape:pagecheckerboard="0"
     inkscape:deskcolor="#505050"
     inkscape:zoom="5.6568542"
     inkscape:cx="18.649941"
     inkscape:cy="79.19596"
     inkscape:window-width="1920"
     inkscape:window-height="1016"
     inkscape:window-x="0"
     inkscape:window-y="28"
     inkscape:window-maximized="1"
     inkscape:current-layer="svg33" />
  <defs
     id="defs3">
    <filter
       id="filter0_d_2586_5626"
       x="0"
       y="0"
       width="50.8184"
       height="33.5718"
       filterUnits="userSpaceOnUse"
       color-interpolation-filters="sRGB">
      <feFlood
         flood-opacity="0"
         result="BackgroundImageFix"
         id="feFlood1" />
      <feColorMatrix
         in="SourceAlpha"
         type="matrix"
         values="0 0 0 0 0 0 0 0 0 0 0 0 0 0 0 0 0 0 127 0"
         result="hardAlpha"
         id="feColorMatrix1" />
      <feOffset
         id="feOffset1" />
      <feGaussianBlur
         stdDeviation="1"
         id="feGaussianBlur1" />
      <feComposite
         in2="hardAlpha"
         operator="out"
         id="feComposite1" />
      <feColorMatrix
         type="matrix"
         values="0 0 0 0 0 0 0 0 0 0 0 0 0 0 0 0 0 0 0.1 0"
         id="feColorMatrix2" />
      <feBlend
         mode="normal"
         in2="BackgroundImageFix"
         result="effect1_dropShadow_2586_5626"
         id="feBlend2" />
      <feBlend
         mode="normal"
         in="SourceGraphic"
         in2="effect1_dropShadow_2586_5626"
         result="shape"
         id="feBlend3" />
    </filter>
  </defs>
  <defs
     id="defs4">
    <filter
       id="filter0_f_2586_5652"
       x="0"
       y="0"
       width="42.8193"
       height="29.9922"
       filterUnits="userSpaceOnUse"
       color-interpolation-filters="sRGB">
      <feFlood
         flood-opacity="0"
         result="BackgroundImageFix"
         id="feFlood3" />
      <feBlend
         mode="normal"
         in="SourceGraphic"
         in2="BackgroundImageFix"
         result="shape"
         id="feBlend4" />
      <feGaussianBlur
         stdDeviation="2"
         result="effect1_foregroundBlur_2586_5652"
         id="feGaussianBlur4" />
    </filter>
  </defs>
  <defs
     id="defs5">
    <filter
       id="filter0_f_2586_5637"
       x="0"
       y="0"
       width="75"
       height="40.3745"
       filterUnits="userSpaceOnUse"
       color-interpolation-filters="sRGB">
      <feFlood
         flood-opacity="0"
         result="BackgroundImageFix"
         id="feFlood4" />
      <feBlend
         mode="normal"
         in="SourceGraphic"
         in2="BackgroundImageFix"
         result="shape"
         id="feBlend5" />
      <feGaussianBlur
         stdDeviation="2"
         result="effect1_foregroundBlur_2586_5637"
         id="feGaussianBlur5" />
    </filter>
  </defs>
  <path
     id="path34"
     style="fill:#7c7c7c;fill-opacity:1;stroke:#6b6b6b;stroke-width:3.2;stroke-linecap:round;stroke-dasharray:none;stroke-opacity:1"
     d="M 8.2040765e-5,79.885462 C 0.06333981,35.702985 35.9314,-0.06281164 80.113877,8.1051222e-5 124.29635,0.0629726 160.06245,35.930738 159.99992,80.113217 159.93739,124.29569 124.06992,160.06208 79.887445,159.99992 35.704969,159.93776 -0.06171553,124.07059 7.8240765e-5,79.88811 c 0,0 -0.338052030765,0.559417 3.8e-6,-0.0026 z"
     sodipodi:nodetypes="cssscc" />
  <g
     id="g33"
     style="fill:#fffdf6;fill-opacity:1">
    <g
       id="g6"
       style="fill:#fffdf6;fill-opacity:1">
      <animateTransform
         attributeName="transform"
         type="translate"
         keyTimes="0;1"
         values="0;200"
         dur="12"
         repeatCount="indefinite"
         begin="weatehrCloudCoverCardLink.mouseenter"
         end="weatehrCloudCoverCardLink.mouseleave" />
      <g
         filter="url(#filter0_f_2586_5637)"
         transform="translate(45 0) scale(1.3)"
         style="opacity:0.6;fill:#fffdf6;fill-opacity:1"
         id="g5">
        <path
           class="cloudPathFar-DS-bTRN0G"
           fill-rule="evenodd"
           clip-rule="evenodd"
           d="M28.8274 36.2876H44.0042C44.5767 36.345 45.1578 36.3744 45.746 36.3744C46.3342 36.3744 46.9153 36.345 47.4878 36.2876H61.3451C61.748 36.3449 62.1601 36.3746 62.5794 36.3746C67.23 36.3746 71 32.723 71 28.2185C71 23.714 67.23 20.0624 62.5794 20.0624C62.5388 20.0624 62.4982 20.0627 62.4578 20.0632C62.389 11.1803 54.9332 4 45.746 4C39.1781 4 33.4951 7.66976 30.7633 13.0078C29.4582 12.7977 28.0964 12.6864 26.6963 12.6864C17.0297 12.6864 9.19332 17.9892 9.19332 24.5305C9.19332 24.9712 9.22889 25.4063 9.29821 25.8345C6.35796 25.9138 3.99962 28.2425 3.99962 31.1035C3.99962 34.0146 6.44123 36.3745 9.45311 36.3745C9.79175 36.3745 10.1232 36.3447 10.4447 36.2876H24.5651C25.2636 36.345 25.9748 36.3745 26.6963 36.3745C27.4177 36.3745 28.1289 36.345 28.8274 36.2876Z"
           id="path5"
           style="fill:#fffdf6;fill-opacity:1" />
      </g>
    </g>
    <g
       id="g8"
       style="fill:#fffdf6;fill-opacity:1">
      <animateTransform
         attributeName="transform"
         type="translate"
         keyTimes="0;1"
         values="0;200"
         dur="12"
         repeatCount="indefinite"
         begin="weatehrCloudCoverCardLink.mouseenter"
         end="weatehrCloudCoverCardLink.mouseleave" />
      <g
         transform="translate(100 100) scale(0.9)"
         id="g7"
         style="fill:#fffdf6;fill-opacity:1"><path
   class="cloudPathNear-DS-agVpcC"
   fill-rule="evenodd"
   clip-rule="evenodd"
   d="M69.8975 46.3317C76.4683 46.2364 81.7646 41.0475 81.7646 34.6604C81.7646 28.2137 76.3691 22.9877 69.7134 22.9877C69.6554 22.9877 69.5975 22.9881 69.5397 22.9889C69.4411 10.2761 58.7708 0 45.6225 0C36.3864 0 28.3731 5.07072 24.388 12.4948C15.4349 13.2413 8.4085 20.5171 8.4085 29.3823C8.4085 30.0233 8.44523 30.6559 8.51675 31.2783C8.27705 31.2568 8.03419 31.2458 7.7887 31.2458C3.48732 31.2458 0.000358582 34.6232 0.000358582 38.7895C0.000358582 42.9557 3.48732 46.3331 7.7887 46.3331C7.81483 46.3331 7.84094 46.333 7.86702 46.3328V46.3332H69.8975V46.3317Z"
   id="path6"
   style="fill:#fffdf6;fill-opacity:1" />

;</g>
    </g>
    <g
       id="g10"
       style="fill:#fffdf6;fill-opacity:1">
      <animateTransform
         attributeName="transform"
         type="translate"
         keyTimes="0;1"
         values="0;200"
         dur="12"
         repeatCount="indefinite"
         begin="weatehrCloudCoverCardLink.mouseenter"
         end="weatehrCloudCoverCardLink.mouseleave" />
      <g
         filter="url(#filter0_f_2586_5637)"
         transform="translate(35 55) scale(1.5)"
         style="opacity:0.6;fill:#fffdf6;fill-opacity:1"
         id="g9">
        <path
           class="cloudPathFar-DS-bTRN0G"
           fill-rule="evenodd"
           clip-rule="evenodd"
           d="M28.8274 36.2876H44.0042C44.5767 36.345 45.1578 36.3744 45.746 36.3744C46.3342 36.3744 46.9153 36.345 47.4878 36.2876H61.3451C61.748 36.3449 62.1601 36.3746 62.5794 36.3746C67.23 36.3746 71 32.723 71 28.2185C71 23.714 67.23 20.0624 62.5794 20.0624C62.5388 20.0624 62.4982 20.0627 62.4578 20.0632C62.389 11.1803 54.9332 4 45.746 4C39.1781 4 33.4951 7.66976 30.7633 13.0078C29.4582 12.7977 28.0964 12.6864 26.6963 12.6864C17.0297 12.6864 9.19332 17.9892 9.19332 24.5305C9.19332 24.9712 9.22889 25.4063 9.29821 25.8345C6.35796 25.9138 3.99962 28.2425 3.99962 31.1035C3.99962 34.0146 6.44123 36.3745 9.45311 36.3745C9.79175 36.3745 10.1232 36.3447 10.4447 36.2876H24.5651C25.2636 36.345 25.9748 36.3745 26.6963 36.3745C27.4177 36.3745 28.1289 36.345 28.8274 36.2876Z"
           id="path8"
           style="fill:#fffdf6;fill-opacity:1" />
      </g>
    </g>
    <g
       id="g12"
       style="fill:#fffdf6;fill-opacity:1">
      <animateTransform
         attributeName="transform"
         type="translate"
         keyTimes="0;1"
         values="0;200"
         dur="12"
         repeatCount="indefinite"
         begin="weatehrCloudCoverCardLink.mouseenter"
         end="weatehrCloudCoverCardLink.mouseleave" />
      <g
         filter="url(#filter0_f_2586_5637)"
         transform="translate(-65 90) scale(2)"
         style="opacity:0.6;fill:#fffdf6;fill-opacity:1"
         id="g11">
        <path
           class="cloudPathFar-DS-bTRN0G"
           fill-rule="evenodd"
           clip-rule="evenodd"
           d="M28.8274 36.2876H44.0042C44.5767 36.345 45.1578 36.3744 45.746 36.3744C46.3342 36.3744 46.9153 36.345 47.4878 36.2876H61.3451C61.748 36.3449 62.1601 36.3746 62.5794 36.3746C67.23 36.3746 71 32.723 71 28.2185C71 23.714 67.23 20.0624 62.5794 20.0624C62.5388 20.0624 62.4982 20.0627 62.4578 20.0632C62.389 11.1803 54.9332 4 45.746 4C39.1781 4 33.4951 7.66976 30.7633 13.0078C29.4582 12.7977 28.0964 12.6864 26.6963 12.6864C17.0297 12.6864 9.19332 17.9892 9.19332 24.5305C9.19332 24.9712 9.22889 25.4063 9.29821 25.8345C6.35796 25.9138 3.99962 28.2425 3.99962 31.1035C3.99962 34.0146 6.44123 36.3745 9.45311 36.3745C9.79175 36.3745 10.1232 36.3447 10.4447 36.2876H24.5651C25.2636 36.345 25.9748 36.3745 26.6963 36.3745C27.4177 36.3745 28.1289 36.345 28.8274 36.2876Z"
           id="path10"
           style="fill:#fffdf6;fill-opacity:1" />
      </g>
    </g>
    <g
       id="g14"
       style="fill:#fffdf6;fill-opacity:1">
      <animateTransform
         attributeName="transform"
         type="translate"
         keyTimes="0;1"
         values="0;200"
         dur="12"
         repeatCount="indefinite"
         begin="weatehrCloudCoverCardLink.mouseenter"
         end="weatehrCloudCoverCardLink.mouseleave" />
      <g
         filter="url(#filter0_d_2586_5626)"
         transform="translate(5 80) scale(2)"
         id="g13"
         style="fill:#fffdf6;fill-opacity:1">
        <path
           class="cloudPathNear-DS-agVpcC"
           fill-rule="evenodd"
           clip-rule="evenodd"
           d="M18.9358 30.0199C20.9872 31.0129 23.3018 31.5717 25.7512 31.5717C29.211 31.5717 32.402 30.4568 34.9622 28.5777C36.3648 30.3952 38.6039 31.5716 41.1267 31.5716C45.3747 31.5716 48.8184 28.2361 48.8184 24.1216C48.8184 20.0071 45.3747 16.6716 41.1267 16.6716C41.0898 16.6716 41.0529 16.6719 41.0161 16.6724C40.9532 8.55863 34.1429 2 25.7512 2C19.8565 2 14.7421 5.23617 12.1986 9.97431C6.48431 10.4508 1.9997 15.0944 1.9997 20.7527C1.9997 26.7276 7.00047 31.5713 13.1692 31.5713C15.2792 31.5713 17.2525 31.0047 18.9358 30.0199Z"
           id="path12"
           style="fill:#fffdf6;fill-opacity:1" />
      </g>
    </g>
    <g
       id="g16"
       style="fill:#fffdf6;fill-opacity:1">
      <animateTransform
         attributeName="transform"
         type="translate"
         keyTimes="0;1"
         values="0;200"
         dur="12"
         repeatCount="indefinite"
         begin="weatehrCloudCoverCardLink.mouseenter"
         end="weatehrCloudCoverCardLink.mouseleave" />
      <g
         filter="url(#filter0_d_2586_5626)"
         transform="translate(120 65) scale(1)"
         id="g15"
         style="fill:#fffdf6;fill-opacity:1">
        <path
           class="cloudPathNear-DS-agVpcC"
           fill-rule="evenodd"
           clip-rule="evenodd"
           d="M18.9358 30.0199C20.9872 31.0129 23.3018 31.5717 25.7512 31.5717C29.211 31.5717 32.402 30.4568 34.9622 28.5777C36.3648 30.3952 38.6039 31.5716 41.1267 31.5716C45.3747 31.5716 48.8184 28.2361 48.8184 24.1216C48.8184 20.0071 45.3747 16.6716 41.1267 16.6716C41.0898 16.6716 41.0529 16.6719 41.0161 16.6724C40.9532 8.55863 34.1429 2 25.7512 2C19.8565 2 14.7421 5.23617 12.1986 9.97431C6.48431 10.4508 1.9997 15.0944 1.9997 20.7527C1.9997 26.7276 7.00047 31.5713 13.1692 31.5713C15.2792 31.5713 17.2525 31.0047 18.9358 30.0199Z"
           id="path14"
           style="fill:#fffdf6;fill-opacity:1" />
      </g>
    </g>
    <g
       id="g18"
       style="fill:#fffdf6;fill-opacity:1">
      <animateTransform
         attributeName="transform"
         type="translate"
         keyTimes="0;1"
         values="-130;20"
         dur="12"
         repeatCount="indefinite"
         begin="weatehrCloudCoverCardLink.mouseenter"
         end="weatehrCloudCoverCardLink.mouseleave" />
      <g
         filter="url(#filter0_f_2586_5637)"
         transform="translate(45 0) scale(1.3)"
         style="opacity:0.6;fill:#fffdf6;fill-opacity:1"
         id="g17">
        <path
           class="cloudPathFar-DS-bTRN0G"
           fill-rule="evenodd"
           clip-rule="evenodd"
           d="M28.8274 36.2876H44.0042C44.5767 36.345 45.1578 36.3744 45.746 36.3744C46.3342 36.3744 46.9153 36.345 47.4878 36.2876H61.3451C61.748 36.3449 62.1601 36.3746 62.5794 36.3746C67.23 36.3746 71 32.723 71 28.2185C71 23.714 67.23 20.0624 62.5794 20.0624C62.5388 20.0624 62.4982 20.0627 62.4578 20.0632C62.389 11.1803 54.9332 4 45.746 4C39.1781 4 33.4951 7.66976 30.7633 13.0078C29.4582 12.7977 28.0964 12.6864 26.6963 12.6864C17.0297 12.6864 9.19332 17.9892 9.19332 24.5305C9.19332 24.9712 9.22889 25.4063 9.29821 25.8345C6.35796 25.9138 3.99962 28.2425 3.99962 31.1035C3.99962 34.0146 6.44123 36.3745 9.45311 36.3745C9.79175 36.3745 10.1232 36.3447 10.4447 36.2876H24.5651C25.2636 36.345 25.9748 36.3745 26.6963 36.3745C27.4177 36.3745 28.1289 36.345 28.8274 36.2876Z"
           id="path16"
           style="fill:#fffdf6;fill-opacity:1" />
      </g>
    </g>
    <g
       id="g20"
       style="fill:#fffdf6;fill-opacity:1">
      <animateTransform
         attributeName="transform"
         type="translate"
         keyTimes="0;1"
         values="-130;20"
         dur="12"
         repeatCount="indefinite"
         begin="weatehrCloudCoverCardLink.mouseenter"
         end="weatehrCloudCoverCardLink.mouseleave" />
      <g
         transform="translate(100 100) scale(0.9)"
         id="g19"
         style="fill:#fffdf6;fill-opacity:1"><path
   class="cloudPathNear-DS-agVpcC"
   fill-rule="evenodd"
   clip-rule="evenodd"
   d="M69.8975 46.3317C76.4683 46.2364 81.7646 41.0475 81.7646 34.6604C81.7646 28.2137 76.3691 22.9877 69.7134 22.9877C69.6554 22.9877 69.5975 22.9881 69.5397 22.9889C69.4411 10.2761 58.7708 0 45.6225 0C36.3864 0 28.3731 5.07072 24.388 12.4948C15.4349 13.2413 8.4085 20.5171 8.4085 29.3823C8.4085 30.0233 8.44523 30.6559 8.51675 31.2783C8.27705 31.2568 8.03419 31.2458 7.7887 31.2458C3.48732 31.2458 0.000358582 34.6232 0.000358582 38.7895C0.000358582 42.9557 3.48732 46.3331 7.7887 46.3331C7.81483 46.3331 7.84094 46.333 7.86702 46.3328V46.3332H69.8975V46.3317Z"
   id="path18"
   style="fill:#fffdf6;fill-opacity:1" />

;</g>
    </g>
    <g
       id="g22"
       style="fill:#fffdf6;fill-opacity:1">
      <animateTransform
         attributeName="transform"
         type="translate"
         keyTimes="0;1"
         values="-130;50"
         dur="12"
         repeatCount="indefinite"
         begin="weatehrCloudCoverCardLink.mouseenter"
         end="weatehrCloudCoverCardLink.mouseleave" />
      <g
         filter="url(#filter0_f_2586_5637)"
         transform="translate(35 55) scale(1.5)"
         style="opacity:0.6;fill:#fffdf6;fill-opacity:1"
         id="g21">
        <path
           class="cloudPathFar-DS-bTRN0G"
           fill-rule="evenodd"
           clip-rule="evenodd"
           d="M28.8274 36.2876H44.0042C44.5767 36.345 45.1578 36.3744 45.746 36.3744C46.3342 36.3744 46.9153 36.345 47.4878 36.2876H61.3451C61.748 36.3449 62.1601 36.3746 62.5794 36.3746C67.23 36.3746 71 32.723 71 28.2185C71 23.714 67.23 20.0624 62.5794 20.0624C62.5388 20.0624 62.4982 20.0627 62.4578 20.0632C62.389 11.1803 54.9332 4 45.746 4C39.1781 4 33.4951 7.66976 30.7633 13.0078C29.4582 12.7977 28.0964 12.6864 26.6963 12.6864C17.0297 12.6864 9.19332 17.9892 9.19332 24.5305C9.19332 24.9712 9.22889 25.4063 9.29821 25.8345C6.35796 25.9138 3.99962 28.2425 3.99962 31.1035C3.99962 34.0146 6.44123 36.3745 9.45311 36.3745C9.79175 36.3745 10.1232 36.3447 10.4447 36.2876H24.5651C25.2636 36.345 25.9748 36.3745 26.6963 36.3745C27.4177 36.3745 28.1289 36.345 28.8274 36.2876Z"
           id="path20"
           style="fill:#fffdf6;fill-opacity:1" />
      </g>
    </g>
    <g
       id="g24"
       style="fill:#fffdf6;fill-opacity:1">
      <animateTransform
         attributeName="transform"
         type="translate"
         keyTimes="0;1"
         values="-130;50"
         dur="12"
         repeatCount="indefinite"
         begin="weatehrCloudCoverCardLink.mouseenter"
         end="weatehrCloudCoverCardLink.mouseleave" />
      <g
         filter="url(#filter0_f_2586_5637)"
         transform="translate(-65 90) scale(2)"
         style="opacity:0.6;fill:#fffdf6;fill-opacity:1"
         id="g23">
        <path
           class="cloudPathFar-DS-bTRN0G"
           fill-rule="evenodd"
           clip-rule="evenodd"
           d="M28.8274 36.2876H44.0042C44.5767 36.345 45.1578 36.3744 45.746 36.3744C46.3342 36.3744 46.9153 36.345 47.4878 36.2876H61.3451C61.748 36.3449 62.1601 36.3746 62.5794 36.3746C67.23 36.3746 71 32.723 71 28.2185C71 23.714 67.23 20.0624 62.5794 20.0624C62.5388 20.0624 62.4982 20.0627 62.4578 20.0632C62.389 11.1803 54.9332 4 45.746 4C39.1781 4 33.4951 7.66976 30.7633 13.0078C29.4582 12.7977 28.0964 12.6864 26.6963 12.6864C17.0297 12.6864 9.19332 17.9892 9.19332 24.5305C9.19332 24.9712 9.22889 25.4063 9.29821 25.8345C6.35796 25.9138 3.99962 28.2425 3.99962 31.1035C3.99962 34.0146 6.44123 36.3745 9.45311 36.3745C9.79175 36.3745 10.1232 36.3447 10.4447 36.2876H24.5651C25.2636 36.345 25.9748 36.3745 26.6963 36.3745C27.4177 36.3745 28.1289 36.345 28.8274 36.2876Z"
           id="path22"
           style="fill:#fffdf6;fill-opacity:1" />
      </g>
    </g>
    <g
       id="g26"
       style="fill:#fffdf6;fill-opacity:1">
      <animateTransform
         attributeName="transform"
         type="translate"
         keyTimes="0;1"
         values="-130;20"
         dur="12"
         repeatCount="indefinite"
         begin="weatehrCloudCoverCardLink.mouseenter"
         end="weatehrCloudCoverCardLink.mouseleave" />
      <g
         filter="url(#filter0_d_2586_5626)"
         transform="translate(5 80) scale(2)"
         id="g25"
         style="fill:#fffdf6;fill-opacity:1">
        <path
           class="cloudPathNear-DS-agVpcC"
           fill-rule="evenodd"
           clip-rule="evenodd"
           d="M18.9358 30.0199C20.9872 31.0129 23.3018 31.5717 25.7512 31.5717C29.211 31.5717 32.402 30.4568 34.9622 28.5777C36.3648 30.3952 38.6039 31.5716 41.1267 31.5716C45.3747 31.5716 48.8184 28.2361 48.8184 24.1216C48.8184 20.0071 45.3747 16.6716 41.1267 16.6716C41.0898 16.6716 41.0529 16.6719 41.0161 16.6724C40.9532 8.55863 34.1429 2 25.7512 2C19.8565 2 14.7421 5.23617 12.1986 9.97431C6.48431 10.4508 1.9997 15.0944 1.9997 20.7527C1.9997 26.7276 7.00047 31.5713 13.1692 31.5713C15.2792 31.5713 17.2525 31.0047 18.9358 30.0199Z"
           id="path24"
           style="fill:#fffdf6;fill-opacity:1" />
      </g>
    </g>
    <g
       id="g28"
       style="fill:#fffdf6;fill-opacity:1">
      <animateTransform
         attributeName="transform"
         type="translate"
         keyTimes="0;1"
         values="-130;20"
         dur="12"
         repeatCount="indefinite"
         begin="weatehrCloudCoverCardLink.mouseenter"
         end="weatehrCloudCoverCardLink.mouseleave" />
      <g
         filter="url(#filter0_d_2586_5626)"
         transform="translate(120 65) scale(1)"
         id="g27"
         style="fill:#fffdf6;fill-opacity:1">
        <path
           class="cloudPathNear-DS-agVpcC"
           fill-rule="evenodd"
           clip-rule="evenodd"
           d="M18.9358 30.0199C20.9872 31.0129 23.3018 31.5717 25.7512 31.5717C29.211 31.5717 32.402 30.4568 34.9622 28.5777C36.3648 30.3952 38.6039 31.5716 41.1267 31.5716C45.3747 31.5716 48.8184 28.2361 48.8184 24.1216C48.8184 20.0071 45.3747 16.6716 41.1267 16.6716C41.0898 16.6716 41.0529 16.6719 41.0161 16.6724C40.9532 8.55863 34.1429 2 25.7512 2C19.8565 2 14.7421 5.23617 12.1986 9.97431C6.48431 10.4508 1.9997 15.0944 1.9997 20.7527C1.9997 26.7276 7.00047 31.5713 13.1692 31.5713C15.2792 31.5713 17.2525 31.0047 18.9358 30.0199Z"
           id="path26"
           style="fill:#fffdf6;fill-opacity:1" />
      </g>
    </g>
    <g
       id="g30"
       style="fill:#fffdf6;fill-opacity:1">
      <animateTransform
         attributeName="transform"
         type="translate"
         keyTimes="0;1"
         values="0;200"
         dur="12"
         repeatCount="indefinite"
         begin="weatehrCloudCoverCardLink.mouseenter"
         end="weatehrCloudCoverCardLink.mouseleave" />
      <g
         transform="translate(-10 15) scale(0.9)"
         id="g29"
         style="fill:#fffdf6;fill-opacity:1"><path
   class="cloudPathNear-DS-agVpcC"
   fill-rule="evenodd"
   clip-rule="evenodd"
   d="M81.2061 62.1666H51.9668C50.8675 62.2765 49.7518 62.3329 48.6226 62.3329C47.4933 62.3329 46.3776 62.2765 45.2783 62.1666H18.5821C17.8087 62.2763 17.0176 62.3331 16.2128 62.3331C7.25873 62.3331 0 55.3024 0 46.6295C0 37.9567 7.25873 30.926 16.2128 30.926C16.2908 30.926 16.3686 30.9265 16.4462 30.9276C16.5788 13.8248 30.9338 0 48.6226 0C61.2683 0 72.2103 7.06572 77.4699 17.3436C79.9826 16.939 82.6044 16.7248 85.3001 16.7248C103.912 16.7248 119 26.9346 119 39.529C119 40.3774 118.931 41.2149 118.798 42.0393C124.459 42.1919 129 46.6754 129 52.184C129 57.7889 124.299 62.3326 118.5 62.3326C117.85 62.3326 117.215 62.2757 116.598 62.1666H89.3941C88.0522 62.2766 86.6859 62.3332 85.3001 62.3332C83.9143 62.3332 82.5481 62.2766 81.2061 62.1666Z"
   id="path28"
   style="fill:#fffdf6;fill-opacity:1" />

;</g>
    </g>
    <g
       id="g32"
       style="fill:#fffdf6;fill-opacity:1">
      <animateTransform
         attributeName="transform"
         type="translate"
         keyTimes="0;1"
         values="-130;20"
         dur="12"
         repeatCount="indefinite"
         begin="weatehrCloudCoverCardLink.mouseenter"
         end="weatehrCloudCoverCardLink.mouseleave" />
      <g
         transform="translate(-10 15) scale(0.9)"
         id="g31"
         style="fill:#fffdf6;fill-opacity:1"><path
   class="cloudPathNear-DS-agVpcC"
   fill-rule="evenodd"
   clip-rule="evenodd"
   d="M81.2061 62.1666H51.9668C50.8675 62.2765 49.7518 62.3329 48.6226 62.3329C47.4933 62.3329 46.3776 62.2765 45.2783 62.1666H18.5821C17.8087 62.2763 17.0176 62.3331 16.2128 62.3331C7.25873 62.3331 0 55.3024 0 46.6295C0 37.9567 7.25873 30.926 16.2128 30.926C16.2908 30.926 16.3686 30.9265 16.4462 30.9276C16.5788 13.8248 30.9338 0 48.6226 0C61.2683 0 72.2103 7.06572 77.4699 17.3436C79.9826 16.939 82.6044 16.7248 85.3001 16.7248C103.912 16.7248 119 26.9346 119 39.529C119 40.3774 118.931 41.2149 118.798 42.0393C124.459 42.1919 129 46.6754 129 52.184C129 57.7889 124.299 62.3326 118.5 62.3326C117.85 62.3326 117.215 62.2757 116.598 62.1666H89.3941C88.0522 62.2766 86.6859 62.3332 85.3001 62.3332C83.9143 62.3332 82.5481 62.2766 81.2061 62.1666Z"
   id="path30"
   style="fill:#fffdf6;fill-opacity:1" />

;</g>
    </g>
  </g>
</svg>
