<?xml version="1.0" encoding="UTF-8" standalone="no"?>
<svg
   width="258"
   height="129"
   viewBox="0 0 258 129"
   fill="none"
   version="1.1"
   id="svg22"
   sodipodi:docname="sun.svg"
   inkscape:version="1.4 (e7c3feb100, 2024-10-09)"
   xmlns:inkscape="http://www.inkscape.org/namespaces/inkscape"
   xmlns:sodipodi="http://sodipodi.sourceforge.net/DTD/sodipodi-0.dtd"
   xmlns="http://www.w3.org/2000/svg"
   xmlns:svg="http://www.w3.org/2000/svg">
  <sodipodi:namedview
     id="namedview22"
     pagecolor="#505050"
     bordercolor="#eeeeee"
     borderopacity="1"
     inkscape:showpageshadow="0"
     inkscape:pageopacity="0"
     inkscape:pagecheckerboard="0"
     inkscape:deskcolor="#505050"
     inkscape:zoom="3.1705426"
     inkscape:cx="98.248166"
     inkscape:cy="67.496332"
     inkscape:window-width="1920"
     inkscape:window-height="1016"
     inkscape:window-x="0"
     inkscape:window-y="28"
     inkscape:window-maximized="1"
     inkscape:current-layer="svg22" />
  <g
     filter="url(#filter0_i_3881_557)"
     transform="translate(188 60)"
     id="g1"
     style="stroke:#39435c;stroke-opacity:1">
    <path
       d="M63 61.3773C63 61.3773 60 59.8773 42.5 44.3881C33 34.3773 26.6179 28.3307 4.73328 4"
       class="infoLineBackground-DS-EntryPoint1-1"
       stroke-opacity="0.1"
       stroke-width="8"
       stroke-linecap="round"
       id="path1"
       style="stroke:#39435c;stroke-opacity:1" />
  </g>
  <g
     filter="url(#filter0_i_3881_557)"
     transform="translate(0 60)"
     id="g2"
     style="stroke:#39435c;stroke-opacity:1">
    <path
       d="M4 62.0002C4 62.0002 15.5 58.5001 31.3913 45.0109C38.1924 39.2378 52.0654 21.3662 66.5 4.6228"
       class="infoLineBackground-DS-EntryPoint1-1"
       stroke-opacity="0.1"
       stroke-width="8"
       stroke-linecap="round"
       id="path2"
       style="stroke:#39435c;stroke-opacity:1" />
  </g>
  <line
     x1="3"
     y1="67.5"
     x2="253"
     y2="67.5"
     class="infoLineBackground-DS-EntryPoint1-1"
     stroke-opacity="0.2"
     stroke-width="0.84"
     stroke-dasharray="0, 0"
     id="line2" />
  <path
     d="M 64 65 Q 129 -42 194 65"
     stroke="url(#paint0_linear_4430_8884)"
     stroke-width="8"
     stroke-linecap="round"
     id="path3" />
  <g
     filter="url(#filter1_d_4430_8884)"
     id="g4"
     style="fill:#38425b;fill-opacity:1">
    <circle
       cx="63"
       cy="68"
       r="4.5"
       class="infoCircleBackground-DS-EntryPoint1-1"
       id="circle3"
       style="fill:#38425b;fill-opacity:1" />
    <circle
       cx="63"
       cy="68"
       r="5.5"
       stroke="white"
       stroke-width="3"
       id="circle4"
       style="fill:#38425b;fill-opacity:1" />
  </g>
  <g
     filter="url(#filter2_d_4430_8884)"
     id="g6">
    <circle
       cx="196"
       cy="68"
       r="4"
       class="infoCircleBackground-DS-EntryPoint1-1"
       id="circle5"
       style="stroke:none;stroke-opacity:1;fill:#38425b;fill-opacity:1" />
    <circle
       cx="196"
       cy="68"
       r="5.5"
       stroke="white"
       stroke-width="3"
       id="circle6" />
  </g>
  <g
     filter="url(#filter3_d_4430_8884)"
     transform="translate(1.9669926,-4.4205379)"
     id="g7">
    <rect
       x="116"
       y="2"
       width="26"
       height="26"
       rx="13"
       fill="#ffffff"
       id="rect6" />
    <path
       d="m 129,7 c 0.276,0 0.5,0.22386 0.5,0.5 v 1 c 0,0.27614 -0.224,0.5 -0.5,0.5 -0.276,0 -0.5,-0.22386 -0.5,-0.5 v -1 C 128.5,7.22386 128.724,7 129,7 Z m 4,8 c 0,2.2091 -1.791,4 -4,4 -2.209,0 -4,-1.7909 -4,-4 0,-2.2091 1.791,-4 4,-4 2.209,0 4,1.7909 4,4 z m 3.5,0.5 c 0.276,0 0.5,-0.2239 0.5,-0.5 0,-0.2761 -0.224,-0.5 -0.5,-0.5 h -1 c -0.276,0 -0.5,0.2239 -0.5,0.5 0,0.2761 0.224,0.5 0.5,0.5 z M 129,21 c 0.276,0 0.5,0.2239 0.5,0.5 v 1 c 0,0.2761 -0.224,0.5 -0.5,0.5 -0.276,0 -0.5,-0.2239 -0.5,-0.5 v -1 c 0,-0.2761 0.224,-0.5 0.5,-0.5 z m -6.5,-5.5 c 0.276,0 0.5,-0.2239 0.5,-0.5 0,-0.2761 -0.224,-0.5 -0.5,-0.5 h -1.037 c -0.276,0 -0.5,0.2239 -0.5,0.5 0,0.2761 0.224,0.5 0.5,0.5 z m 0.646,-6.35355 c 0.196,-0.19527 0.512,-0.19527 0.708,0 l 1,0.99995 c 0.195,0.1953 0.195,0.5119 0,0.7072 -0.196,0.1952 -0.512,0.1952 -0.708,0 l -1,-1.00005 c -0.195,-0.19526 -0.195,-0.51184 0,-0.7071 z m 0.708,11.70715 c -0.196,0.1952 -0.512,0.1952 -0.708,0 -0.195,-0.1953 -0.195,-0.5119 0,-0.7072 l 1,-1 c 0.196,-0.1952 0.512,-0.1952 0.708,0 0.195,0.1953 0.195,0.5119 0,0.7072 z m 11,-11.70715 c -0.196,-0.19527 -0.512,-0.19527 -0.708,0 l -1,0.99995 c -0.195,0.1953 -0.195,0.5119 0,0.7072 0.196,0.1952 0.512,0.1952 0.708,0 l 1,-1.00005 c 0.195,-0.19526 0.195,-0.51184 0,-0.7071 z m -0.708,11.70715 c 0.196,0.1952 0.512,0.1952 0.708,0 0.195,-0.1953 0.195,-0.5119 0,-0.7072 l -1,-1 c -0.196,-0.1952 -0.512,-0.1952 -0.708,0 -0.195,0.1953 -0.195,0.5119 0,0.7072 z"
       fill="rgba(172, 172, 172, 1)"
       id="path6"
       style="fill:#ffcf0b;fill-opacity:1" />
  </g>
  <defs
     id="defs22">
    <filter
       id="filter0_i_3881_557"
       x="0"
       y="0"
       width="68"
       height="66"
       filterUnits="userSpaceOnUse"
       color-interpolation-filters="sRGB">
      <feFlood
         flood-opacity="0"
         result="BackgroundImageFix"
         id="feFlood7" />
      <feBlend
         mode="normal"
         in="SourceGraphic"
         in2="BackgroundImageFix"
         result="shape"
         id="feBlend7" />
      <feColorMatrix
         in="SourceAlpha"
         type="matrix"
         values="0 0 0 0 0 0 0 0 0 0 0 0 0 0 0 0 0 0 127 0"
         result="hardAlpha"
         id="feColorMatrix7" />
      <feOffset
         id="feOffset7" />
      <feGaussianBlur
         stdDeviation="1"
         id="feGaussianBlur7" />
      <feComposite
         in2="hardAlpha"
         operator="arithmetic"
         k2="-1"
         k3="1"
         id="feComposite7" />
      <feColorMatrix
         type="matrix"
         values="0 0 0 0 0 0 0 0 0 0 0 0 0 0 0 0 0 0 0.1 0"
         id="feColorMatrix8" />
      <feBlend
         mode="normal"
         in2="shape"
         result="effect1_innerShadow_3881_557"
         id="feBlend8" />
    </filter>
    <filter
       id="filter1_d_4430_8884"
       x="55"
       y="59"
       width="18"
       height="18"
       filterUnits="userSpaceOnUse"
       color-interpolation-filters="sRGB">
      <feFlood
         flood-opacity="0"
         result="BackgroundImageFix"
         id="feFlood8" />
      <feColorMatrix
         in="SourceAlpha"
         type="matrix"
         values="0 0 0 0 0 0 0 0 0 0 0 0 0 0 0 0 0 0 127 0"
         result="hardAlpha"
         id="feColorMatrix9" />
      <feOffset
         id="feOffset9" />
      <feGaussianBlur
         stdDeviation="1"
         id="feGaussianBlur9" />
      <feComposite
         in2="hardAlpha"
         operator="out"
         id="feComposite9" />
      <feColorMatrix
         type="matrix"
         values="0 0 0 0 0 0 0 0 0 0 0 0 0 0 0 0 0 0 0.1 0"
         id="feColorMatrix10" />
      <feBlend
         mode="normal"
         in2="BackgroundImageFix"
         result="effect1_dropShadow_4430_8883"
         id="feBlend10" />
      <feBlend
         mode="normal"
         in="SourceGraphic"
         in2="effect1_dropShadow_4430_8883"
         result="shape"
         id="feBlend11" />
    </filter>
    <filter
       id="filter2_d_4430_8884"
       x="189"
       y="59"
       width="18"
       height="18"
       filterUnits="userSpaceOnUse"
       color-interpolation-filters="sRGB">
      <feFlood
         flood-opacity="0"
         result="BackgroundImageFix"
         id="feFlood11" />
      <feColorMatrix
         in="SourceAlpha"
         type="matrix"
         values="0 0 0 0 0 0 0 0 0 0 0 0 0 0 0 0 0 0 127 0"
         result="hardAlpha"
         id="feColorMatrix11" />
      <feOffset
         id="feOffset11" />
      <feGaussianBlur
         stdDeviation="1"
         id="feGaussianBlur11" />
      <feComposite
         in2="hardAlpha"
         operator="out"
         id="feComposite11" />
      <feColorMatrix
         type="matrix"
         values="0 0 0 0 0 0 0 0 0 0 0 0 0 0 0 0 0 0 0.1 0"
         id="feColorMatrix12" />
      <feBlend
         mode="normal"
         in2="BackgroundImageFix"
         result="effect1_dropShadow_4430_8883"
         id="feBlend12" />
      <feBlend
         mode="normal"
         in="SourceGraphic"
         in2="effect1_dropShadow_4430_8883"
         result="shape"
         id="feBlend13" />
    </filter>
    <filter
       id="filter3_d_4430_8884"
       x="114"
       y="0"
       width="30"
       height="30"
       filterUnits="userSpaceOnUse"
       color-interpolation-filters="sRGB">
      <feFlood
         flood-opacity="0"
         result="BackgroundImageFix"
         id="feFlood13" />
      <feColorMatrix
         in="SourceAlpha"
         type="matrix"
         values="0 0 0 0 0 0 0 0 0 0 0 0 0 0 0 0 0 0 127 0"
         result="hardAlpha"
         id="feColorMatrix13" />
      <feOffset
         id="feOffset13" />
      <feGaussianBlur
         stdDeviation="1"
         id="feGaussianBlur13" />
      <feComposite
         in2="hardAlpha"
         operator="out"
         id="feComposite13" />
      <feColorMatrix
         type="matrix"
         values="0 0 0 0 0 0 0 0 0 0 0 0 0 0 0 0 0 0 0.1 0"
         id="feColorMatrix14" />
      <feBlend
         mode="normal"
         in2="BackgroundImageFix"
         result="effect1_dropShadow_4430_8883"
         id="feBlend14" />
      <feBlend
         mode="normal"
         in="SourceGraphic"
         in2="effect1_dropShadow_4430_8883"
         result="shape"
         id="feBlend15" />
    </filter>
    <linearGradient
       id="paint0_linear_4430_8884"
       x1="167.549"
       y1="76.7188"
       x2="50.9688"
       y2="76.7188"
       gradientUnits="userSpaceOnUse">
      <stop
         stop-color="#552278"
         id="stop15" />
      <stop
         offset="0.255606"
         stop-color="#D13438"
         id="stop16" />
      <stop
         offset="0.824634"
         stop-color="#BA4D52"
         id="stop17" />
      <stop
         offset="1"
         stop-color="#F87528"
         id="stop18" />
    </linearGradient>
    <linearGradient
       id="paint0_linear_2195_5734"
       x1="140"
       y1="78.6025"
       x2="0.999749"
       y2="78.6025"
       gradientUnits="userSpaceOnUse">
      <stop
         stop-color="#FF6B00"
         id="stop19" />
      <stop
         offset="0.255606"
         stop-color="#EFB839"
         id="stop20" />
      <stop
         offset="0.824634"
         stop-color="#EFB839"
         id="stop21" />
      <stop
         offset="1"
         stop-color="#EF5A39"
         id="stop22" />
    </linearGradient>
  </defs>
</svg>
