<?xml version="1.0" encoding="UTF-8" standalone="no"?>
<svg
   width="134"
   height="134"
   viewBox="5 -12 171 178"
   fill="none"
   version="1.1"
   id="svg6"
   sodipodi:docname="uv.svg"
   inkscape:version="1.4 (e7c3feb100, 2024-10-09)"
   xmlns:inkscape="http://www.inkscape.org/namespaces/inkscape"
   xmlns:sodipodi="http://sodipodi.sourceforge.net/DTD/sodipodi-0.dtd"
   xmlns="http://www.w3.org/2000/svg"
   xmlns:svg="http://www.w3.org/2000/svg">
  <defs
     id="defs6" />
  <sodipodi:namedview
     id="namedview6"
     pagecolor="#505050"
     bordercolor="#eeeeee"
     borderopacity="1"
     inkscape:showpageshadow="0"
     inkscape:pageopacity="0"
     inkscape:pagecheckerboard="0"
     inkscape:deskcolor="#505050"
     inkscape:zoom="2.1582588"
     inkscape:cx="-66.488784"
     inkscape:cy="87.338925"
     inkscape:window-width="1920"
     inkscape:window-height="1016"
     inkscape:window-x="0"
     inkscape:window-y="28"
     inkscape:window-maximized="1"
     inkscape:current-layer="svg6" />
  <path
     d="M 90.5 80 m 76 0 a 76 76 0 0 1 -32 62.3 "
     transform="rotate(13 90.5 80)"
     fill="none"
     stroke="#5C2E91"
     stroke-width="8"
     stroke-linecap="round"
     id="path1" />
  <path
     d="M 90.5 80 m 76 0 a 76 76 0 0 1 -32 62.3 "
     transform="rotate(-52 90.5 80)"
     fill="none"
     stroke="#D13438"
     stroke-width="8"
     stroke-linecap="round"
     id="path2" />
  <path
     d="M 90.5 80 m 76 0 a 76 76 0 0 1 -32 62.3 "
     transform="rotate(-115 90.5 80)"
     fill="none"
     stroke="#FF8C00"
     stroke-width="8"
     stroke-linecap="round"
     id="path3" />
  <path
     d="M 90.5 80 m 76 0 a 76 76 0 0 1 -32 62.3 "
     transform="rotate(-178 90.5 80)"
     fill="none"
     stroke="#FDE300"
     stroke-width="8"
     stroke-linecap="round"
     id="path4" />
  <path
     d="M 90.5 80 m 76 0 a 76 76 0 0 1 -32 62.3 "
     transform="rotate(-243 90.5 80)"
     fill="none"
     stroke="#73AA24"
     stroke-width="8"
     stroke-linecap="round"
     id="path5" />
  <g
     id="g6"
     transform="translate(-72.679707,-81.601467)">
    <circle
       cx="166.3"
       cy="85.300003"
       r="10"
       fill="#5c2e91"
       id="circle5"
       style="fill:#ffc035;fill-opacity:1" />
    <circle
       cx="166.3"
       cy="85.300003"
       r="11.5"
       stroke="#ffffff"
       stroke-width="3"
       id="circle6" />
  </g>
</svg>
